<svg xmlns="http://www.w3.org/2000/svg" xmlns:xlink="http://www.w3.org/1999/xlink" viewBox="0 0 131.62 81.16"><defs><style>.a,.e{fill:none;}.b{clip-path:url(#a);}.c{fill:#8a2432;}.d{fill:#fff;}.e{stroke:#fff;stroke-miterlimit:10;stroke-width:1.37px;}.f{fill:#b9db01;}</style><clipPath id="a" transform="translate(-4.13 -4.97)"><rect class="a" x="4.13" y="4.97" width="131.62" height="81.16"/></clipPath></defs><g class="b"><path class="c" d="M130.83,23.51c-3.43-3.76-9.17-6.76-16.93-5.42,2.35-3.67,5-7.56,7.41-10.86A1.61,1.61,0,0,0,119.84,5H5.75A1.61,1.61,0,0,0,4.27,7.23c3,4.12,6,8.52,8.91,13.23a203.45,203.45,0,0,1,25.57,64,2.06,2.06,0,0,0,2,1.63H84.82a2.05,2.05,0,0,0,2-1.63,163.13,163.13,0,0,1,4-16c.05,0,14.73-7.24,23.72-11,11.05-4.58,20.16-8.41,21.14-20.82a18,18,0,0,0-4.88-13.19m-3.46,14.88C126.19,42.12,125.06,44.14,115,49c-6.26,3-20.55,8.82-20.55,8.82A192.47,192.47,0,0,1,106,31.67c4.07-4.49,7.34-5.68,11.14-5.93a10.62,10.62,0,0,1,8.65,4.2,10.46,10.46,0,0,1,1.57,8.45" transform="translate(-4.13 -4.97)"/></g><path class="d" d="M56.91,61a14.23,14.23,0,0,0-.32,2.86,6.51,6.51,0,0,0,1.88,5A7.73,7.73,0,0,0,64,70.58a13.88,13.88,0,0,0,7.14-1.9.92.92,0,0,1,1.35.5l1.64,5.69a.86.86,0,0,1-.38,1c-3.35,2-7.57,3-12.65,3q-6.76,0-10.84-3.58t-4.08-9.91a19.12,19.12,0,0,1,.43-4.19L56.77,12.93a.88.88,0,0,1,.88-.69h8.47a.87.87,0,0,1,.88,1l-2,9.79a.88.88,0,0,0,.89,1h14a.88.88,0,0,1,.89,1l-1.35,6.34a.9.9,0,0,1-.89.69H63.77a.88.88,0,0,0-.88.69Z" transform="translate(-4.13 -4.97)"/><path class="e" d="M56.91,61a14.23,14.23,0,0,0-.32,2.86,6.51,6.51,0,0,0,1.88,5A7.73,7.73,0,0,0,64,70.58a13.88,13.88,0,0,0,7.14-1.9.92.92,0,0,1,1.35.5l1.64,5.69a.86.86,0,0,1-.38,1c-3.35,2-7.57,3-12.65,3q-6.76,0-10.84-3.58t-4.08-9.91a19.12,19.12,0,0,1,.43-4.19L56.77,12.93a.88.88,0,0,1,.88-.69h8.47a.87.87,0,0,1,.88,1l-2,9.79a.88.88,0,0,0,.89,1h14a.88.88,0,0,1,.89,1l-1.35,6.34a.9.9,0,0,1-.89.69H63.77a.88.88,0,0,0-.88.69Z" transform="translate(-4.13 -4.97)"/><path class="f" d="M86.8,67.5a4.71,4.71,0,1,1-4.71-4.62A4.67,4.67,0,0,1,86.8,67.5" transform="translate(-4.13 -4.97)"/></svg>