<?xml version="1.0" encoding="utf-8"?>
<!-- Generator: Adobe Illustrator 24.1.0, SVG Export Plug-In . SVG Version: 6.00 Build 0)  -->
<svg version="1.1" id="Layer_1" xmlns="http://www.w3.org/2000/svg" xmlns:xlink="http://www.w3.org/1999/xlink" x="0px" y="0px"
	 viewBox="0 0 217.38 143.05" style="enable-background:new 0 0 217.38 143.05;" xml:space="preserve">
<style type="text/css">
	.st0{fill:#8A2432;}
	.st1{fill:#FFFFFF;stroke:#FFFFFF;stroke-width:2.2134;stroke-miterlimit:10;}
	.st2{fill:#FFFFFF;}
</style>
<path class="st0" d="M207.08,39.52c-5.54-6.08-14.8-10.93-27.35-8.76c3.8-5.94,8.06-12.21,11.98-17.54c0.76-1.72-0.5-3.66-2.39-3.66
	l-91.9,0h-0.53l-91.9,0c-1.88,0-3.15,1.94-2.39,3.66c4.89,6.65,9.71,13.76,14.4,21.36c22.55,36.56,34.67,72.8,41.31,103.48
	c0.33,1.53,1.68,2.63,3.25,2.63h35.33h0.53h35.33c1.57,0,2.92-1.09,3.25-2.63c2.01-9.31,3.33-15.7,6.49-25.89
	c0.08-0.06,23.8-11.69,38.32-17.71c17.86-7.4,32.57-13.59,34.16-33.64C215.55,53.4,212.57,45.56,207.08,39.52z M201.5,63.55
	c-1.91,6.02-3.74,9.3-19.97,17.11c-10.12,4.87-33.21,14.25-33.21,14.25c5.18-13.74,10.74-27.86,18.68-42.21
	c6.57-7.25,11.85-9.18,17.99-9.57c5.79-0.37,11.41,3.23,13.98,6.78C201.42,53.29,202.88,59.18,201.5,63.55z"/>
<g>
	<g>
		<path class="st1" d="M87.66,100.05c-0.35,1.65-0.52,3.19-0.52,4.62c0,3.41,1.01,6.08,3.03,8.01c2.02,1.93,5,2.89,8.93,2.89
			c4.19,0,8.03-1.02,11.53-3.07c0.84-0.49,1.93-0.09,2.18,0.81l2.65,9.2c0.17,0.58-0.07,1.22-0.61,1.54
			c-5.41,3.26-12.23,4.89-20.44,4.89c-7.28,0-13.12-1.92-17.52-5.78c-4.4-3.85-6.59-9.19-6.59-16.01c0-2.42,0.23-4.68,0.69-6.77
			l16.41-77.95c0.14-0.65,0.74-1.12,1.44-1.12h13.67c0.92,0,1.62,0.8,1.44,1.66l-3.3,15.82c-0.18,0.86,0.51,1.66,1.44,1.66h22.62
			c0.92,0,1.62,0.81,1.43,1.67l-2.18,10.25c-0.14,0.65-0.74,1.12-1.43,1.12h-23.8c-0.7,0-1.3,0.47-1.43,1.12L87.66,100.05z"/>
	</g>
	<ellipse class="st2" cx="128.34" cy="110.59" rx="7.61" ry="7.47"/>
</g>
</svg>
