<svg xmlns="http://www.w3.org/2000/svg" xmlns:xlink="http://www.w3.org/1999/xlink" viewBox="0 0 450.12 81.16"><defs><style>.a,.e{fill:none;}.b{clip-path:url(#a);}.c{fill:#8a2432;}.d{fill:#fff;}.e{stroke:#fff;stroke-miterlimit:10;stroke-width:1.37px;}.f{fill:#b9db01;}.g{fill:#231f20;}</style><clipPath id="a" transform="translate(-3.13 -3.97)"><rect class="a" x="3.13" y="3.97" width="131.62" height="81.16"/></clipPath></defs><g class="b"><path class="c" d="M129.83,22.51c-3.43-3.76-9.17-6.76-16.93-5.42,2.35-3.67,5-7.56,7.41-10.86A1.61,1.61,0,0,0,118.84,4H4.75A1.61,1.61,0,0,0,3.27,6.23c3,4.12,6,8.52,8.91,13.23a203.45,203.45,0,0,1,25.57,64,2.06,2.06,0,0,0,2,1.63H83.82a2.05,2.05,0,0,0,2-1.63,163.13,163.13,0,0,1,4-16c.05,0,14.73-7.24,23.72-11,11.05-4.58,20.16-8.41,21.14-20.82a18,18,0,0,0-4.88-13.19m-3.46,14.88C125.19,41.12,124.06,43.14,114,48c-6.26,3-20.55,8.82-20.55,8.82A192.47,192.47,0,0,1,105,30.67c4.07-4.49,7.34-5.68,11.14-5.93a10.62,10.62,0,0,1,8.65,4.2,10.46,10.46,0,0,1,1.57,8.45" transform="translate(-3.13 -3.97)"/></g><path class="d" d="M55.91,60a14.23,14.23,0,0,0-.32,2.86,6.51,6.51,0,0,0,1.88,5A7.73,7.73,0,0,0,63,69.58a13.88,13.88,0,0,0,7.14-1.9.92.92,0,0,1,1.35.5l1.64,5.69a.86.86,0,0,1-.38,1c-3.35,2-7.57,3-12.65,3q-6.76,0-10.84-3.58t-4.08-9.91a19.12,19.12,0,0,1,.43-4.19L55.77,11.93a.88.88,0,0,1,.88-.69h8.47a.87.87,0,0,1,.88,1l-2,9.79a.88.88,0,0,0,.89,1h14a.88.88,0,0,1,.89,1l-1.35,6.34a.9.9,0,0,1-.89.69H62.77a.88.88,0,0,0-.88.69Z" transform="translate(-3.13 -3.97)"/><path class="e" d="M55.91,60a14.23,14.23,0,0,0-.32,2.86,6.51,6.51,0,0,0,1.88,5A7.73,7.73,0,0,0,63,69.58a13.88,13.88,0,0,0,7.14-1.9.92.92,0,0,1,1.35.5l1.64,5.69a.86.86,0,0,1-.38,1c-3.35,2-7.57,3-12.65,3q-6.76,0-10.84-3.58t-4.08-9.91a19.12,19.12,0,0,1,.43-4.19L55.77,11.93a.88.88,0,0,1,.88-.69h8.47a.87.87,0,0,1,.88,1l-2,9.79a.88.88,0,0,0,.89,1h14a.88.88,0,0,1,.89,1l-1.35,6.34a.9.9,0,0,1-.89.69H62.77a.88.88,0,0,0-.88.69Z" transform="translate(-3.13 -3.97)"/><path class="f" d="M85.8,66.5a4.71,4.71,0,1,1-4.71-4.62A4.67,4.67,0,0,1,85.8,66.5" transform="translate(-3.13 -3.97)"/><path class="c" d="M160.34,15.15h-14V8.53h35.78v6.62h-14V50.7h-7.83Z" transform="translate(-3.13 -3.97)"/><path class="c" d="M202.45,41.24l4,4.64A13.1,13.1,0,0,1,201,49.79,21.69,21.69,0,0,1,184.19,49,15.12,15.12,0,0,1,178,43.13a16.54,16.54,0,0,1-2.2-8.52,16.78,16.78,0,0,1,2.14-8.46,15.23,15.23,0,0,1,5.9-5.88,17.2,17.2,0,0,1,8.52-2.11,17.39,17.39,0,0,1,8.23,2,14.71,14.71,0,0,1,5.87,5.6,16.37,16.37,0,0,1,2.17,8.53L184,39.07a8.41,8.41,0,0,0,3.68,4.22,12.08,12.08,0,0,0,6.08,1.44A11.86,11.86,0,0,0,202.45,41.24ZM185.61,26.9a10.18,10.18,0,0,0-2.56,7.29v.06l18.19-3.5A8.57,8.57,0,0,0,198.08,26a9.23,9.23,0,0,0-5.76-1.81A8.78,8.78,0,0,0,185.61,26.9Z" transform="translate(-3.13 -3.97)"/><path class="c" d="M231.6,18.16v7.17a9.52,9.52,0,0,0-1.74-.18A9.1,9.1,0,0,0,223,27.71q-2.48,2.57-2.47,7.38V50.7H213V18.53h7.17v4.69Q223.4,18.17,231.6,18.16Z" transform="translate(-3.13 -3.97)"/><path class="c" d="M239,11.93a4.24,4.24,0,0,1-1.38-3.22A4.26,4.26,0,0,1,239,5.48a4.87,4.87,0,0,1,3.44-1.29,5,5,0,0,1,3.43,1.23,4,4,0,0,1,1.39,3.11,4.57,4.57,0,0,1-1.36,3.34,4.7,4.7,0,0,1-3.46,1.35A4.87,4.87,0,0,1,239,11.93Zm-.36,6.6h7.53V50.7h-7.53Z" transform="translate(-3.13 -3.97)"/><path class="c" d="M272.71,8.53h7.83V44.07h22V50.7H272.71Z" transform="translate(-3.13 -3.97)"/><path class="c" d="M339.4,18.53V50.7h-7.17V46.54A11.6,11.6,0,0,1,327.62,50a15.65,15.65,0,0,1-6.06,1.15,17.13,17.13,0,0,1-8.4-2,14.55,14.55,0,0,1-5.78-5.78,17.53,17.53,0,0,1-2.08-8.68A17.32,17.32,0,0,1,307.38,26a14.62,14.62,0,0,1,5.78-5.76,17.13,17.13,0,0,1,8.4-2.05,15,15,0,0,1,5.76,1.09,12.78,12.78,0,0,1,4.55,3.19V18.53ZM329.28,41.9A10,10,0,0,0,332,34.61a10,10,0,0,0-2.71-7.29,9.2,9.2,0,0,0-6.87-2.77,9.1,9.1,0,0,0-6.84,2.77,10,10,0,0,0-2.68,7.29,10,10,0,0,0,2.68,7.29,9.1,9.1,0,0,0,6.84,2.77A9.2,9.2,0,0,0,329.28,41.9Z" transform="translate(-3.13 -3.97)"/><path class="c" d="M374.76,21.72q3.67,3.56,3.67,10.54V50.7H370.9V33.22q0-4.21-2-6.35a7.36,7.36,0,0,0-5.67-2.14,8.66,8.66,0,0,0-6.56,2.5q-2.42,2.5-2.41,7.2V50.7h-7.53V18.53h7.16v4.15a11.89,11.89,0,0,1,4.7-3.37A17,17,0,0,1,365,18.16,13.46,13.46,0,0,1,374.76,21.72Z" transform="translate(-3.13 -3.97)"/><path class="c" d="M384.58,11.93a4.21,4.21,0,0,1-1.39-3.22,4.23,4.23,0,0,1,1.39-3.23A4.84,4.84,0,0,1,388,4.19a5,5,0,0,1,3.44,1.23,4,4,0,0,1,1.38,3.11,4.56,4.56,0,0,1-1.35,3.34A4.72,4.72,0,0,1,388,13.22,4.84,4.84,0,0,1,384.58,11.93Zm-.36,6.6h7.53V50.7h-7.53Z" transform="translate(-3.13 -3.97)"/><path class="c" d="M423.55,41.24l4,4.64a13.17,13.17,0,0,1-5.42,3.91A21.69,21.69,0,0,1,405.3,49a15.12,15.12,0,0,1-6.23-5.88,16.54,16.54,0,0,1-2.2-8.52A16.88,16.88,0,0,1,399,26.15a15.32,15.32,0,0,1,5.91-5.88,17.2,17.2,0,0,1,8.52-2.11,17.39,17.39,0,0,1,8.23,2,14.77,14.77,0,0,1,5.87,5.6,16.37,16.37,0,0,1,2.17,8.53l-24.64,4.82a8.44,8.44,0,0,0,3.67,4.22,12.14,12.14,0,0,0,6.09,1.44A11.84,11.84,0,0,0,423.55,41.24ZM406.72,26.9a10.18,10.18,0,0,0-2.56,7.29v.06l18.19-3.5A8.57,8.57,0,0,0,419.19,26a9.23,9.23,0,0,0-5.76-1.81A8.78,8.78,0,0,0,406.72,26.9Z" transform="translate(-3.13 -3.97)"/><path class="c" d="M453.25,18.16v7.17a9.52,9.52,0,0,0-1.74-.18,9.12,9.12,0,0,0-6.87,2.56q-2.47,2.57-2.47,7.38V50.7h-7.53V18.53h7.17v4.69Q445.07,18.17,453.25,18.16Z" transform="translate(-3.13 -3.97)"/><path class="g" d="M176.71,74h1.52V84.7h-1.42V82.54a9,9,0,0,1-3.07,1.73,11.49,11.49,0,0,1-3.68.59,11.22,11.22,0,0,1-5.32-1.3,10,10,0,0,1-4-3.76,11.06,11.06,0,0,1-1.51-5.86,10.91,10.91,0,0,1,1.47-5.62,10.34,10.34,0,0,1,4-3.94A11.87,11.87,0,0,1,170.55,63a12.24,12.24,0,0,1,4.36.75,9.4,9.4,0,0,1,3.41,2.21l-1,1a8.08,8.08,0,0,0-3-2,10.94,10.94,0,0,0-3.71-.6,10.11,10.11,0,0,0-5,1.24,9.15,9.15,0,0,0-3.5,3.43,10.2,10.2,0,0,0,.05,9.91,8.81,8.81,0,0,0,3.45,3.3,9.6,9.6,0,0,0,4.58,1.14,9.94,9.94,0,0,0,3.53-.65,8.68,8.68,0,0,0,3-1.94Z" transform="translate(-3.13 -3.97)"/><path class="g" d="M199.75,84.7l-5.15-7.21a16.19,16.19,0,0,1-2.1.15h-6.17V84.7h-1.57V63.12h7.74a9.64,9.64,0,0,1,6.38,1.93,6.56,6.56,0,0,1,2.32,5.35,6.58,6.58,0,0,1-5.06,6.75l5.4,7.55Zm-7.25-8.45a8,8,0,0,0,5.27-1.52,6.07,6.07,0,0,0,0-8.67,8,8,0,0,0-5.27-1.52h-6.17V76.25Z" transform="translate(-3.13 -3.97)"/><path class="g" d="M222.25,65.37c1.57,1.6,2.35,3.93,2.35,7V84.7H223V78H208.6V84.7H207V72.34c0-3,.79-5.37,2.36-7a9.83,9.83,0,0,1,12.87,0ZM223,76.62V72.19a8.07,8.07,0,0,0-1.9-5.8,8.17,8.17,0,0,0-10.64,0,8.07,8.07,0,0,0-1.89,5.8v4.43Z" transform="translate(-3.13 -3.97)"/><path class="g" d="M245,65.05a7.3,7.3,0,0,1,0,10.66,9.64,9.64,0,0,1-6.38,1.93h-6.17V84.7h-1.57V63.12h7.74A9.64,9.64,0,0,1,245,65.05Zm-1.11,9.66a5.28,5.28,0,0,0,1.82-4.31,5.37,5.37,0,0,0-1.82-4.34,8.06,8.06,0,0,0-5.27-1.52h-6.17V76.22h6.17A8.06,8.06,0,0,0,243.87,74.71Z" transform="translate(-3.13 -3.97)"/><path class="g" d="M269.77,63.12V84.7h-1.58V74.44H253.76V84.7h-1.57V63.12h1.57v9.93h14.43V63.12Z" transform="translate(-3.13 -3.97)"/><path class="g" d="M281.79,64.54V83.29h4.53V84.7H275.69V83.29h4.53V64.54h-4.53V63.12h10.63v1.42Z" transform="translate(-3.13 -3.97)"/><path class="g" d="M295.25,83.44a10.49,10.49,0,0,1-4-3.92,11.51,11.51,0,0,1,0-11.22,10.49,10.49,0,0,1,4-3.92A11.6,11.6,0,0,1,301,63a12.1,12.1,0,0,1,4.32.75A9,9,0,0,1,308.65,66l-1,1A9.06,9.06,0,0,0,301,64.42a10,10,0,0,0-4.93,1.23,9.07,9.07,0,0,0-3.49,3.41,10,10,0,0,0,0,9.71,9,9,0,0,0,3.49,3.4A9.89,9.89,0,0,0,301,83.41a9.08,9.08,0,0,0,6.63-2.59l1,1a9.2,9.2,0,0,1-3.38,2.25,11.86,11.86,0,0,1-4.3.77A11.61,11.61,0,0,1,295.25,83.44Z" transform="translate(-3.13 -3.97)"/><path class="g" d="M325.27,63.12h8.54a12.4,12.4,0,0,1,6,1.39,10.09,10.09,0,0,1,4.06,3.84,11.4,11.4,0,0,1,0,11.13,10.23,10.23,0,0,1-4.06,3.84,12.51,12.51,0,0,1-6,1.38h-8.54Zm8.41,20.17A11.32,11.32,0,0,0,339,82.1a8.46,8.46,0,0,0,3.51-3.32,10.26,10.26,0,0,0,0-9.74A8.44,8.44,0,0,0,339,65.73a11.2,11.2,0,0,0-5.28-1.19h-6.84V83.29Z" transform="translate(-3.13 -3.97)"/><path class="g" d="M364.36,82.08a8.43,8.43,0,0,1-3.48,2,15.17,15.17,0,0,1-4.84.73,12.42,12.42,0,0,1-4.64-.76A6.23,6.23,0,0,1,348.53,82a5.1,5.1,0,0,1-1-3.07,4.84,4.84,0,0,1,1.23-3.39,6.27,6.27,0,0,1,3.33-1.85,5,5,0,0,1-2.68-1.82,5.1,5.1,0,0,1-1-3.12,5,5,0,0,1,.91-2.94,6.14,6.14,0,0,1,2.71-2.08,11.11,11.11,0,0,1,4.4-.77,15.13,15.13,0,0,1,3.76.46,10.16,10.16,0,0,1,3.11,1.32L362.85,66a12.2,12.2,0,0,0-6.29-1.67,7.93,7.93,0,0,0-4.81,1.25,3.89,3.89,0,0,0-1.67,3.26A3.69,3.69,0,0,0,351.49,72a6.18,6.18,0,0,0,3.9,1.1h5.24v1.42h-5.3a8,8,0,0,0-4.51,1.11,3.67,3.67,0,0,0-1.66,3.26,3.94,3.94,0,0,0,1.76,3.38,8.94,8.94,0,0,0,5.18,1.25,13.51,13.51,0,0,0,4.36-.68,8.37,8.37,0,0,0,3.22-1.88Z" transform="translate(-3.13 -3.97)"/><path class="g" d="M370.63,84a8.72,8.72,0,0,1-3.34-2.11l.71-1.17a8.28,8.28,0,0,0,3.07,1.95,10.84,10.84,0,0,0,4.05.76,7.75,7.75,0,0,0,4.66-1.17,3.63,3.63,0,0,0,1.57-3,3.23,3.23,0,0,0-.83-2.32,5.66,5.66,0,0,0-2.07-1.32,27.91,27.91,0,0,0-3.33-1,32.85,32.85,0,0,1-3.81-1.14,6,6,0,0,1-2.43-1.71,4.55,4.55,0,0,1-1-3.1,5.2,5.2,0,0,1,.83-2.88,5.62,5.62,0,0,1,2.54-2.08,10.32,10.32,0,0,1,4.27-.77,12.1,12.1,0,0,1,3.52.52,10.35,10.35,0,0,1,3,1.42l-.59,1.26a9.84,9.84,0,0,0-2.85-1.35,10.7,10.7,0,0,0-3.07-.47A7.22,7.22,0,0,0,371,65.56a3.76,3.76,0,0,0-1.54,3.11,3.15,3.15,0,0,0,.83,2.31,5.4,5.4,0,0,0,2.07,1.33,28.9,28.9,0,0,0,3.36,1,33.48,33.48,0,0,1,3.79,1.15,6.29,6.29,0,0,1,2.42,1.68,4.38,4.38,0,0,1,1,3,5.09,5.09,0,0,1-.85,2.87,5.8,5.8,0,0,1-2.6,2.07,10.81,10.81,0,0,1-4.32.77A12.71,12.71,0,0,1,370.63,84Z" transform="translate(-3.13 -3.97)"/><path class="g" d="M392.48,64.54V83.29H397V84.7H386.38V83.29h4.53V64.54h-4.53V63.12H397v1.42Z" transform="translate(-3.13 -3.97)"/><path class="g" d="M416.07,74h1.51V84.7h-1.42V82.54a8.92,8.92,0,0,1-3.07,1.73,11.49,11.49,0,0,1-3.68.59,11.25,11.25,0,0,1-5.32-1.3,9.94,9.94,0,0,1-4-3.76,11.77,11.77,0,0,1-.05-11.48,10.41,10.41,0,0,1,4-3.94A11.87,11.87,0,0,1,409.9,63a12.24,12.24,0,0,1,4.36.75,9.4,9.4,0,0,1,3.41,2.21l-1,1a8.12,8.12,0,0,0-3-2,11,11,0,0,0-3.72-.6,10.11,10.11,0,0,0-5,1.24,9.15,9.15,0,0,0-3.5,3.43,10.2,10.2,0,0,0,.05,9.91,8.81,8.81,0,0,0,3.45,3.3,9.63,9.63,0,0,0,4.58,1.14,9.94,9.94,0,0,0,3.53-.65,8.82,8.82,0,0,0,3-1.94Z" transform="translate(-3.13 -3.97)"/><path class="g" d="M438,65.25a9.06,9.06,0,0,1,2.19,6.53V84.7h-1.57V71.85a7.72,7.72,0,0,0-1.82-5.54,6.83,6.83,0,0,0-5.15-1.89,6.93,6.93,0,0,0-5.31,2q-1.87,2-1.88,6V84.7h-1.57V63.12h1.54v4.16a7,7,0,0,1,2.9-3.24,9.31,9.31,0,0,1,4.6-1.07A8,8,0,0,1,438,65.25Z" transform="translate(-3.13 -3.97)"/></svg>